<svg xmlns="http://www.w3.org/2000/svg" viewBox="0 0 1024 1024" fill="none">
  <g transform="translate(-191.06 -167.85) scale(0.78731)">
    <path fill="#1974AD" fill-rule="evenodd" d="M 941.500 381.591 C 931.050 382.281, 905.400 383.338, 884.500 383.940 C 863.600 384.542, 842.661 385.461, 837.968 385.981 C 833.275 386.502, 809.963 387.383, 786.163 387.939 C 762.363 388.495, 742.458 389.217, 741.929 389.544 C 741.401 389.870, 723.763 390.772, 702.734 391.548 C 681.705 392.323, 659.288 393.436, 652.917 394.021 C 646.547 394.606, 630.073 395.465, 616.309 395.931 C 591.667 396.765, 588.728 397.213, 585.950 400.560 C 584.743 402.015, 584.861 402.469, 586.877 404.102 C 590.726 407.218, 596.029 408.041, 621.795 409.515 C 635.383 410.293, 648.975 411.348, 652 411.860 C 655.025 412.372, 663.800 413.094, 671.500 413.464 C 679.200 413.835, 689.100 414.555, 693.500 415.065 C 697.900 415.575, 708.475 416.442, 717 416.991 C 725.525 417.540, 738.125 418.641, 745 419.436 C 751.875 420.232, 763.575 421.139, 771 421.451 C 778.425 421.763, 791.700 422.670, 800.500 423.467 C 809.300 424.264, 824.375 425.433, 834 426.063 C 843.625 426.694, 856 427.588, 861.500 428.049 C 867 428.510, 879.825 428.913, 890 428.944 C 900.175 428.975, 922.558 429.489, 939.741 430.087 C 969.282 431.115, 971.186 431.074, 974.741 429.337 C 978.150 427.671, 980.611 424.377, 984.659 416.060 C 986.297 412.694, 994.354 401.231, 997.301 398.072 C 1003.589 391.333, 1006 387.688, 1006 384.922 C 1006 383.380, 1005.438 381.757, 1004.750 381.316 C 1002.763 380.042, 962.319 380.218, 941.500 381.591 M 753 477.694 C 717.678 478.884, 661.977 481.116, 660.412 481.404 C 657.349 481.968, 641.145 482.965, 618 484.012 C 606.175 484.548, 592.900 485.425, 588.500 485.963 C 571.761 488.007, 554.859 489.028, 537 489.073 C 513.753 489.131, 483.365 491.543, 480.250 493.577 C 477.352 495.469, 477.352 498.768, 480.250 499.997 C 484.169 501.659, 505.825 504.097, 525.500 505.090 C 535.950 505.617, 546.975 506.513, 550 507.080 C 553.025 507.648, 562.925 508.522, 572 509.023 C 581.075 509.524, 592.325 510.621, 597 511.462 C 606.396 513.151, 642.799 516.590, 661.500 517.556 C 668.100 517.897, 676.650 518.606, 680.500 519.132 C 684.350 519.658, 694.925 520.516, 704 521.039 C 713.075 521.561, 723.744 522.707, 727.708 523.585 C 734.786 525.153, 734.998 525.141, 739.444 522.921 C 742.919 521.185, 745.711 518.318, 751.459 510.580 C 755.578 505.036, 762.784 496.556, 767.474 491.735 C 772.163 486.914, 776 482.371, 776 481.640 C 776 478.722, 772.467 476.995, 766.921 477.204 C 763.940 477.315, 757.675 477.536, 753 477.694 M 646 577.015 C 637.475 577.364, 616.325 578.206, 599 578.887 C 570.167 580.019, 485.537 585.539, 482 586.519 C 481.175 586.747, 472.019 587.406, 461.654 587.984 C 451.288 588.562, 439.588 589.495, 435.654 590.058 C 431.719 590.622, 416.125 591.488, 401 591.983 C 375.919 592.805, 372.929 593.092, 367.004 595.241 C 360.217 597.703, 359.002 599.252, 361.343 602.455 C 362.634 604.220, 365.152 604.469, 393.352 605.614 C 410.186 606.298, 424.334 607.088, 424.791 607.371 C 425.249 607.654, 431.171 608.367, 437.953 608.956 C 444.734 609.544, 452.581 610.656, 455.391 611.426 C 458.201 612.195, 467.250 613.083, 475.500 613.398 C 483.750 613.713, 495 614.618, 500.500 615.409 C 506 616.200, 515.392 617.153, 521.371 617.528 C 527.350 617.902, 533.650 618.622, 535.371 619.126 C 537.092 619.631, 547.725 620.703, 559 621.510 C 570.275 622.317, 582.425 623.423, 586 623.968 C 589.575 624.514, 598.125 624.970, 605 624.983 C 611.875 624.995, 621.489 625.495, 626.364 626.093 C 640.301 627.802, 642.437 626.919, 651 615.908 C 655.032 610.724, 661.863 603.008, 669.069 595.500 C 679.850 584.266, 681 582.826, 681 580.554 C 681 575.649, 680.520 575.601, 646 577.015 M 605 697.549 C 601.425 698.293, 593.775 699.189, 588 699.540 C 582.225 699.891, 573.905 700.824, 569.510 701.614 C 565.116 702.403, 553.416 703.507, 543.510 704.066 C 533.605 704.625, 523.025 705.535, 520 706.088 C 516.975 706.641, 504.867 707.515, 493.094 708.029 C 481.321 708.543, 470.971 709.180, 470.094 709.445 C 469.217 709.709, 458.598 710.609, 446.495 711.444 C 418.188 713.397, 410.384 715.630, 413.667 720.834 C 415.191 723.250, 419.144 723.950, 437.500 725.053 C 446.850 725.615, 459.225 726.705, 465 727.474 C 470.775 728.243, 479.775 729.151, 485 729.491 C 490.225 729.830, 498.325 730.737, 503 731.506 C 507.675 732.274, 516.450 733.188, 522.500 733.536 C 528.550 733.885, 537.100 734.773, 541.500 735.509 C 545.900 736.246, 553.775 737.121, 559 737.453 C 564.225 737.785, 573.225 738.709, 579 739.506 C 584.775 740.303, 598.500 741.434, 609.500 742.020 C 620.500 742.606, 631.825 743.333, 634.667 743.634 C 639.440 744.140, 639.968 743.979, 641.573 741.529 C 643.196 739.052, 643.203 738.648, 641.672 735.438 C 640.770 733.547, 639.620 732, 639.115 732 C 637.549 732, 629.004 716.970, 628.994 714.197 C 628.990 713.264, 628.379 711.333, 627.635 709.907 C 626.890 708.481, 625.976 705.688, 625.604 703.700 C 624.224 696.348, 618.697 694.698, 605 697.549 M 603.500 804.036 C 591.400 804.405, 578.125 805.215, 574 805.835 C 569.875 806.456, 557.050 807.430, 545.500 807.999 C 533.950 808.567, 520.900 809.468, 516.500 810 C 512.100 810.533, 498.150 811.403, 485.500 811.934 C 472.850 812.466, 457.100 813.580, 450.500 814.409 C 438.843 815.875, 399.386 818.503, 372 819.639 C 356.350 820.288, 351.457 821.277, 349.948 824.098 C 347.026 829.556, 357.188 831.831, 390 833.063 C 403.475 833.569, 419 834.634, 424.500 835.429 C 430 836.225, 441.250 837.132, 449.500 837.444 C 457.750 837.756, 467.200 838.632, 470.500 839.392 C 473.800 840.151, 482.125 841.078, 489 841.451 C 495.875 841.825, 504.875 842.570, 509 843.106 C 513.125 843.642, 526.850 844.715, 539.500 845.489 C 552.150 846.264, 569.250 847.366, 577.500 847.939 C 585.750 848.511, 599.025 849.430, 607 849.980 C 614.975 850.530, 626.561 851.524, 632.748 852.187 C 646.186 853.629, 645.960 853.734, 656 841.313 C 664.998 830.180, 668.190 826.495, 675.323 819 C 678.726 815.425, 682.358 811.182, 683.394 809.572 C 685.266 806.665, 685.263 806.632, 683.029 804.822 C 680.960 803.147, 678.550 803.015, 653.139 803.183 C 637.938 803.284, 615.600 803.668, 603.500 804.036 M 1159.500 1163.096 C 1149.600 1163.533, 1139.025 1164.540, 1136 1165.334 C 1132.975 1166.127, 1125.550 1167.975, 1119.500 1169.440 C 1113.450 1170.905, 1106.250 1172.952, 1103.500 1173.989 C 1100.750 1175.026, 1093.100 1177.792, 1086.500 1180.136 C 1079.900 1182.480, 1073.600 1184.930, 1072.500 1185.580 C 1071.400 1186.230, 1069.150 1187.076, 1067.500 1187.459 C 1065.850 1187.842, 1063.825 1188.701, 1063 1189.368 C 1062.175 1190.035, 1058.575 1191.894, 1055 1193.500 C 1051.425 1195.106, 1047.825 1196.965, 1047 1197.632 C 1046.175 1198.299, 1044.258 1199.154, 1042.741 1199.533 C 1041.223 1199.912, 1039.730 1200.629, 1039.422 1201.126 C 1039.115 1201.623, 1037.432 1202.700, 1035.682 1203.518 C 1033.932 1204.336, 1030.475 1206.347, 1028 1207.986 C 1025.525 1209.625, 1022.819 1211.311, 1021.987 1211.733 C 1020.150 1212.665, 1003.472 1223.860, 992.500 1231.526 C 988.100 1234.600, 983.227 1237.877, 981.672 1238.808 C 980.116 1239.739, 976.547 1242.188, 973.741 1244.250 C 970.935 1246.313, 968.233 1248, 967.738 1248 C 967.242 1248, 964.961 1249.482, 962.668 1251.292 C 960.376 1253.103, 953.325 1257.673, 947 1261.448 C 940.675 1265.223, 934.825 1268.863, 934 1269.537 C 933.175 1270.212, 931.375 1271.105, 930 1271.522 C 928.625 1271.939, 925.025 1273.677, 922 1275.385 C 916.699 1278.377, 896.435 1286.960, 894.610 1286.987 C 894.120 1286.994, 891.870 1287.833, 889.610 1288.850 C 884.120 1291.322, 876.508 1293.915, 871 1295.190 C 868.525 1295.762, 865.957 1296.668, 865.293 1297.203 C 863.874 1298.344, 845.356 1300.852, 832.500 1301.643 C 822.330 1302.269, 793.324 1299.788, 783.101 1297.417 C 775.140 1295.570, 751.927 1288.471, 746.864 1286.334 C 743.122 1284.754, 734.393 1282.773, 723 1280.918 C 719.425 1280.336, 712.675 1279.151, 708 1278.286 C 697.270 1276.299, 664.156 1275.448, 654 1276.898 C 634.494 1279.684, 620.741 1282.615, 610.500 1286.167 C 602.930 1288.793, 592.128 1292.952, 590.071 1294.032 C 589.207 1294.486, 586.475 1295.739, 584 1296.817 C 572.536 1301.810, 567.383 1304.146, 566 1304.979 C 562.632 1307.005, 524.970 1325.400, 519 1327.934 C 517.625 1328.518, 515.825 1329.425, 515 1329.951 C 512.750 1331.384, 488.128 1343, 487.340 1343 C 486.965 1343, 485.947 1343.629, 485.079 1344.398 C 482.863 1346.360, 463.671 1355.996, 461.933 1356.019 C 460.561 1356.037, 457.208 1358.071, 448.114 1364.400 C 444.678 1366.792, 442.769 1367.346, 437.224 1367.561 C 433.526 1367.704, 428.700 1368.488, 426.500 1369.304 C 407.575 1376.322, 406.743 1376.483, 389.993 1376.389 C 377.658 1376.320, 373.833 1375.965, 371.293 1374.651 C 369.536 1373.743, 367.163 1373, 366.020 1373 C 364.876 1373, 361.236 1371.862, 357.931 1370.471 C 354.626 1369.080, 348.352 1367.318, 343.988 1366.557 C 339.625 1365.795, 333.653 1364.072, 330.716 1362.728 C 327.780 1361.384, 323.156 1359.969, 320.439 1359.584 C 317.723 1359.199, 313.475 1358.166, 311 1357.289 C 301.171 1353.806, 279.966 1342.882, 273.674 1338.060 C 270.012 1335.253, 265.930 1332.544, 264.603 1332.039 C 261.547 1330.877, 256.594 1332.156, 256.199 1334.208 C 255.686 1336.871, 264.517 1346.679, 278 1358.420 C 282.676 1362.493, 294.483 1371.801, 299.500 1375.371 C 306.875 1380.618, 339.337 1396.427, 348 1398.989 C 352.125 1400.209, 357.750 1402.028, 360.500 1403.032 C 363.250 1404.035, 367.975 1405.150, 371 1405.511 C 374.025 1405.872, 378.750 1406.819, 381.500 1407.615 C 387.409 1409.327, 437.481 1409.648, 447.500 1408.039 C 460.277 1405.986, 470.605 1403.953, 473 1403.020 C 474.375 1402.484, 478.425 1401.392, 482 1400.594 C 493.873 1397.944, 512.974 1391.623, 523.566 1386.837 C 525.802 1385.827, 528.175 1385, 528.840 1385 C 529.504 1385, 535.775 1382.257, 542.774 1378.904 C 555.081 1373.008, 561.119 1370.150, 577 1362.699 C 601.268 1351.314, 616.899 1345.415, 633 1341.566 C 636.025 1340.843, 639.670 1339.781, 641.100 1339.207 C 642.531 1338.633, 649.128 1337.226, 655.761 1336.082 C 670.184 1333.592, 691.056 1333.310, 704.500 1335.422 C 709.450 1336.200, 716.425 1337.149, 720 1337.533 C 723.575 1337.916, 727.235 1338.615, 728.134 1339.087 C 729.032 1339.560, 733.082 1340.455, 737.134 1341.077 C 741.185 1341.699, 744.979 1342.597, 745.564 1343.072 C 746.150 1343.548, 749.377 1344.578, 752.737 1345.362 C 756.097 1346.145, 759.396 1347.127, 760.069 1347.543 C 760.742 1347.958, 764.039 1348.850, 767.396 1349.525 C 773.099 1350.670, 778.514 1351.977, 792 1355.464 C 800.113 1357.561, 820.500 1359.859, 837 1360.536 C 851.486 1361.131, 864.534 1360.282, 881.500 1357.640 C 894.237 1355.656, 916.186 1349.977, 921 1347.419 C 922.375 1346.688, 926.200 1344.891, 929.500 1343.425 C 936.636 1340.255, 944.910 1336.241, 947 1334.936 C 947.825 1334.420, 949.625 1333.526, 951 1332.948 C 952.375 1332.370, 955.300 1330.833, 957.500 1329.532 C 959.700 1328.232, 966.225 1324.771, 972 1321.842 C 982.199 1316.669, 1000.437 1304.856, 1027.500 1285.893 C 1030.250 1283.966, 1036.550 1280.029, 1041.500 1277.144 C 1046.450 1274.258, 1053.650 1269.939, 1057.500 1267.545 C 1064.194 1263.383, 1068.837 1260.943, 1081 1255.197 C 1084.025 1253.768, 1087.175 1252.095, 1088 1251.480 C 1088.825 1250.865, 1091.525 1249.561, 1094 1248.582 C 1096.475 1247.604, 1100.750 1245.902, 1103.500 1244.801 C 1106.250 1243.700, 1110.750 1242.196, 1113.500 1241.460 C 1116.250 1240.724, 1120.300 1239.439, 1122.500 1238.605 C 1124.700 1237.770, 1127.760 1237.068, 1129.300 1237.044 C 1130.839 1237.020, 1133.380 1236.338, 1134.945 1235.529 C 1136.510 1234.719, 1139.750 1233.780, 1142.145 1233.440 C 1144.540 1233.101, 1148.525 1232.223, 1151 1231.489 C 1153.475 1230.756, 1158.200 1229.864, 1161.500 1229.507 C 1164.800 1229.150, 1170.200 1228.171, 1173.500 1227.331 C 1180.790 1225.477, 1219.351 1225.286, 1228 1227.061 C 1231.025 1227.682, 1238.450 1228.800, 1244.500 1229.546 C 1250.550 1230.291, 1259.325 1231.806, 1264 1232.912 C 1268.675 1234.018, 1276.100 1235.784, 1280.500 1236.835 C 1284.900 1237.887, 1291.875 1239.951, 1296 1241.422 C 1300.125 1242.892, 1305.106 1244.449, 1307.069 1244.880 C 1309.032 1245.312, 1314.657 1247.255, 1319.569 1249.198 C 1324.481 1251.141, 1331.875 1254.001, 1336 1255.554 C 1340.125 1257.107, 1343.979 1258.728, 1344.564 1259.157 C 1345.590 1259.909, 1350.189 1261.184, 1364 1264.547 C 1367.575 1265.417, 1372.750 1266.756, 1375.500 1267.522 C 1395.490 1273.089, 1441.147 1273.091, 1456.500 1267.525 C 1458.700 1266.728, 1462.648 1265.604, 1465.274 1265.028 C 1478.173 1262.199, 1506.071 1245.266, 1519.341 1232.213 C 1527.745 1223.946, 1530.304 1220.149, 1529.811 1216.682 C 1529.216 1212.503, 1524.234 1213.476, 1514 1219.769 C 1507.597 1223.707, 1496.524 1227.998, 1492.730 1228.012 C 1490.954 1228.018, 1487.025 1228.733, 1484 1229.600 C 1475.412 1232.062, 1441.755 1232.680, 1432 1230.555 C 1427.875 1229.656, 1422.025 1228.450, 1419 1227.873 C 1412.617 1226.658, 1397.777 1222.469, 1395.239 1221.166 C 1394.282 1220.676, 1391.594 1219.983, 1389.264 1219.627 C 1385.147 1218.999, 1381.766 1217.772, 1373.500 1213.906 C 1371.300 1212.877, 1366.575 1210.880, 1363 1209.467 C 1359.425 1208.054, 1354.925 1206.185, 1353 1205.314 C 1351.075 1204.442, 1347.700 1202.937, 1345.500 1201.970 C 1343.300 1201.002, 1338.125 1198.622, 1334 1196.681 C 1321.453 1190.777, 1316.679 1188.723, 1312.500 1187.430 C 1307.296 1185.821, 1300.028 1183.194, 1297.500 1182.007 C 1295.219 1180.937, 1284.678 1177.412, 1278 1175.485 C 1275.525 1174.771, 1268.918 1172.805, 1263.318 1171.116 C 1257.717 1169.427, 1251.192 1167.763, 1248.818 1167.419 C 1246.443 1167.074, 1242.025 1166.190, 1239 1165.453 C 1226.871 1162.500, 1194.650 1161.545, 1159.500 1163.096 M 1176 1262.600 C 1166.925 1263.348, 1156.125 1264.618, 1152 1265.421 C 1147.875 1266.223, 1142.250 1267.191, 1139.500 1267.571 C 1136.750 1267.951, 1132.925 1268.865, 1131 1269.603 C 1129.075 1270.340, 1125.700 1271.378, 1123.500 1271.910 C 1121.300 1272.441, 1116.350 1274.057, 1112.500 1275.500 C 1102.383 1279.294, 1095.134 1281.876, 1090 1283.513 C 1084.782 1285.178, 1069.521 1292.939, 1058.500 1299.532 C 1056.300 1300.848, 1052.925 1302.855, 1051 1303.991 C 1049.075 1305.127, 1046.150 1306.939, 1044.500 1308.018 C 1042.850 1309.096, 1040.375 1310.536, 1039 1311.216 C 1037.625 1311.897, 1034.367 1313.927, 1031.760 1315.727 C 1029.153 1317.527, 1026.733 1319, 1026.381 1319 C 1026.030 1319, 1022.538 1321.071, 1018.621 1323.602 C 1014.705 1326.132, 1006.550 1331.407, 1000.500 1335.323 C 994.450 1339.239, 986.125 1344.178, 982 1346.297 C 969.853 1352.539, 965.707 1354.615, 962 1356.312 C 960.075 1357.194, 956.475 1359.014, 954 1360.358 C 948.354 1363.423, 931.414 1370.640, 927.748 1371.541 C 926.234 1371.913, 923.326 1373.069, 921.286 1374.109 C 919.246 1375.149, 916.981 1376, 916.253 1376 C 915.525 1376, 913.933 1376.632, 912.715 1377.405 C 911.497 1378.177, 908.025 1379.129, 905 1379.520 C 901.975 1379.911, 898.704 1380.649, 897.730 1381.161 C 896.757 1381.673, 890.007 1383.307, 882.730 1384.793 C 870.430 1387.305, 867.742 1387.495, 844.500 1387.492 C 818.255 1387.488, 807.500 1386.304, 793.556 1381.884 C 790.287 1380.848, 786.687 1380.007, 785.556 1380.014 C 784.425 1380.022, 780.575 1379.154, 777 1378.084 C 766.096 1374.820, 758.741 1372.911, 753.500 1371.985 C 750.750 1371.499, 746.025 1370.428, 743 1369.604 C 721.725 1363.813, 715.625 1363.117, 683 1362.758 C 656.970 1362.472, 635.470 1363.942, 629.782 1366.396 C 627.737 1367.278, 624.974 1368, 623.641 1368 C 622.309 1368, 619.257 1368.890, 616.859 1369.978 C 614.462 1371.066, 611.566 1371.966, 610.424 1371.978 C 607.731 1372.007, 603.718 1376.295, 604.171 1378.661 C 604.499 1380.370, 606.296 1380.540, 629.512 1381.067 C 646.487 1381.452, 657.065 1382.153, 662.500 1383.251 C 666.900 1384.140, 672.750 1385.323, 675.500 1385.881 C 691.820 1389.189, 701.523 1392.137, 707.500 1395.602 C 708.600 1396.240, 710.850 1397.062, 712.500 1397.428 C 715.494 1398.093, 730.368 1403.728, 737 1406.710 C 742.478 1409.173, 750.079 1412.041, 755 1413.502 C 757.475 1414.236, 762.650 1416.048, 766.500 1417.528 C 770.350 1419.008, 775.975 1420.827, 779 1421.571 C 789.503 1424.152, 798.798 1426.757, 799.872 1427.421 C 800.466 1427.788, 804.676 1428.738, 809.226 1429.531 C 813.777 1430.325, 819.750 1431.389, 822.500 1431.896 C 832.625 1433.762, 865.798 1436.191, 875.500 1435.776 C 886.495 1435.306, 899.955 1433.618, 910 1431.450 C 913.575 1430.679, 918.525 1429.779, 921 1429.451 C 923.475 1429.123, 927.075 1428.226, 929 1427.458 C 930.925 1426.690, 934.750 1425.631, 937.500 1425.104 C 940.250 1424.577, 945.650 1422.947, 949.500 1421.480 C 953.350 1420.014, 958.769 1418.243, 961.542 1417.545 C 964.314 1416.848, 967.464 1415.796, 968.542 1415.207 C 969.619 1414.619, 973.425 1412.801, 977 1411.168 C 980.575 1409.534, 988.277 1405.915, 994.117 1403.125 C 999.956 1400.335, 1005.806 1397.598, 1007.117 1397.043 C 1008.427 1396.488, 1011.300 1394.936, 1013.500 1393.593 C 1015.700 1392.249, 1019.825 1389.977, 1022.666 1388.543 C 1025.507 1387.109, 1030.682 1384.025, 1034.166 1381.690 C 1037.650 1379.355, 1043.424 1375.657, 1046.997 1373.472 C 1050.570 1371.288, 1054.221 1369.050, 1055.111 1368.500 C 1057.723 1366.886, 1063.995 1363.241, 1071.500 1358.978 C 1081.668 1353.202, 1114.062 1337, 1115.443 1337 C 1116.090 1337, 1119.743 1335.485, 1123.560 1333.634 C 1129.697 1330.657, 1135.306 1328.816, 1154.500 1323.478 C 1157.250 1322.714, 1162.526 1321.611, 1166.225 1321.029 C 1169.923 1320.446, 1174.149 1319.514, 1175.614 1318.957 C 1179.979 1317.297, 1206.570 1314.769, 1220.062 1314.731 C 1231.723 1314.698, 1242.069 1315.597, 1259.500 1318.157 C 1277.159 1320.751, 1287.661 1322.681, 1289.500 1323.672 C 1290.600 1324.264, 1294.200 1325.076, 1297.500 1325.476 C 1300.800 1325.875, 1304.275 1326.616, 1305.223 1327.122 C 1306.171 1327.628, 1309.321 1328.470, 1312.223 1328.995 C 1315.125 1329.519, 1319.750 1330.606, 1322.500 1331.410 C 1327.358 1332.831, 1343.631 1335.552, 1363 1338.182 C 1380.825 1340.602, 1412.328 1338.764, 1420.210 1334.845 C 1422.251 1333.830, 1424.846 1333, 1425.976 1333 C 1428.629 1333, 1432.151 1326.329, 1430.151 1325.093 C 1429.450 1324.660, 1421.567 1324.005, 1412.635 1323.639 C 1403.703 1323.273, 1394.844 1322.513, 1392.948 1321.950 C 1391.051 1321.388, 1386.575 1320.304, 1383 1319.541 C 1376.051 1318.060, 1368.545 1315.739, 1363.216 1313.426 C 1361.410 1312.642, 1359.259 1312, 1358.436 1312 C 1356.701 1312, 1348.107 1308.467, 1336 1302.777 C 1328.218 1299.119, 1325.313 1297.804, 1315 1293.268 C 1313.075 1292.422, 1309.700 1290.936, 1307.500 1289.966 C 1305.300 1288.997, 1299.658 1286.358, 1294.961 1284.102 C 1290.265 1281.846, 1285.854 1280, 1285.159 1280 C 1284.465 1280, 1282.232 1279.111, 1280.198 1278.025 C 1272.647 1273.991, 1257.599 1268.684, 1250.500 1267.551 C 1248.300 1267.199, 1243.575 1266.285, 1240 1265.520 C 1230.761 1263.540, 1206.680 1260.947, 1199 1261.105 C 1195.425 1261.178, 1185.075 1261.851, 1176 1262.600"/>
    <path fill="#0B2A4A" fill-rule="evenodd" d="M 1188.561 292.110 C 1185.294 292.586, 1180.005 293.881, 1176.807 294.988 C 1173.609 296.094, 1170.365 297, 1169.599 297 C 1168.358 297, 1159.882 301.107, 1154.500 304.317 C 1142.924 311.220, 1131.399 319.855, 1125.760 325.851 C 1120.114 331.854, 1109 346.962, 1109 348.635 C 1109 349.069, 1106.576 354.561, 1102.438 363.500 C 1101.674 365.150, 1100.051 370.100, 1098.832 374.500 C 1096.880 381.547, 1096.609 385.001, 1096.558 403.500 C 1096.496 426.047, 1097.284 430.963, 1103.638 447.643 C 1110.789 466.415, 1126.901 485.292, 1147.064 498.520 C 1153.710 502.880, 1165.799 509, 1167.766 509 C 1168.355 509, 1170.112 509.636, 1171.669 510.413 C 1176.822 512.986, 1190.366 515.985, 1199.500 516.576 C 1215.283 517.598, 1232.643 514.762, 1247.634 508.714 C 1256.504 505.136, 1266.835 499.976, 1271.891 496.601 C 1285.149 487.747, 1302.595 466.829, 1310.344 450.496 C 1311.909 447.198, 1313.750 443.375, 1314.436 442 C 1320.303 430.238, 1322.627 411.426, 1320.915 389.556 C 1319.966 377.447, 1317.394 366.355, 1314.142 360.353 C 1313.589 359.334, 1311.736 355.575, 1310.024 352 C 1305.496 342.548, 1303.725 339.594, 1299.389 334.269 C 1291.254 324.278, 1280.248 314.688, 1269.814 308.500 C 1253.772 298.986, 1241.694 294.234, 1228 292.051 C 1220.367 290.834, 1197.072 290.869, 1188.561 292.110 M 863.500 473.650 C 858.147 474.770, 850.052 477.571, 846.073 479.682 C 836.215 484.911, 834.756 486.295, 790.909 532.025 C 770.859 552.936, 766.974 557.142, 754.500 571.446 C 751.200 575.230, 747.786 579.040, 746.914 579.913 C 745.339 581.490, 727.764 601.598, 711.004 621 C 709.816 622.375, 702.467 630.417, 694.672 638.872 C 678.454 656.462, 674.313 662.044, 671.135 670.598 C 669.164 675.904, 668.922 678.114, 669.271 687.598 C 669.826 702.695, 673.218 710.969, 682.761 720.500 C 686.908 724.642, 688.105 725.570, 694 729.208 C 705.276 736.169, 724.084 738.235, 735 733.712 C 749.317 727.779, 758.638 718.534, 769.493 699.500 C 773.167 693.057, 777.401 687.318, 793.957 666.336 C 801.405 656.896, 811.909 643.548, 817.298 636.674 C 822.687 629.801, 828.098 623.124, 829.323 621.838 C 830.548 620.552, 834.914 615.450, 839.025 610.500 C 848.365 599.255, 848.155 599.512, 850.197 596.775 C 861.906 581.083, 879.891 562.845, 885.468 561.008 C 893.292 558.431, 925.769 560.611, 959.500 565.977 C 966.100 567.026, 973.750 568.167, 976.500 568.512 C 985.319 569.616, 993.510 572.713, 1003.123 578.576 C 1012.905 584.542, 1016 587.215, 1016 589.696 C 1016 592.039, 932.116 676.602, 835.655 771.500 C 788.460 817.930, 789.670 816.452, 793.487 823 C 794.288 824.375, 795.524 826.625, 796.234 828 C 800.916 837.076, 806.318 843.167, 818.500 853.108 C 826.123 859.328, 853.586 878.097, 858.959 880.758 C 860.357 881.451, 863.300 883.107, 865.500 884.440 C 867.700 885.772, 870.850 887.574, 872.500 888.445 C 874.150 889.315, 878.650 892.027, 882.500 894.471 C 886.350 896.915, 893.775 901.432, 899 904.508 C 904.225 907.583, 909.175 910.533, 910 911.062 C 913.191 913.109, 929.943 923.218, 939 928.562 C 944.225 931.646, 951.650 936.131, 955.500 938.529 C 959.350 940.927, 967.675 945.892, 974 949.563 C 980.325 953.233, 987.937 957.831, 990.916 959.782 C 993.896 961.732, 998.846 964.655, 1001.916 966.278 C 1004.987 967.900, 1008.210 969.851, 1009.079 970.614 C 1009.947 971.376, 1011.025 972, 1011.475 972 C 1011.925 972, 1014.636 973.555, 1017.499 975.455 C 1020.362 977.356, 1025.694 980.442, 1029.347 982.313 C 1033 984.185, 1036.910 986.887, 1038.036 988.319 L 1040.084 990.922 1036.265 993.332 C 1034.165 994.658, 1030.886 996.086, 1028.978 996.505 C 1027.069 996.924, 1024.156 997.849, 1022.504 998.561 C 1020.852 999.272, 1015.450 1001.061, 1010.500 1002.536 C 997.084 1006.532, 974.642 1014.080, 973.500 1014.981 C 972.950 1015.414, 970.925 1016.093, 969 1016.490 C 967.075 1016.887, 964.150 1017.790, 962.500 1018.498 C 957.906 1020.468, 942.589 1025.397, 931.500 1028.472 C 926.257 1029.927, 918.577 1032.346, 913.500 1034.143 C 911.850 1034.726, 908.250 1035.806, 905.500 1036.542 C 900.769 1037.807, 894.886 1039.723, 887 1042.567 C 880.878 1044.774, 873.656 1047.098, 868.500 1048.520 C 862.485 1050.178, 854.780 1052.909, 846 1056.495 C 836.997 1060.171, 826.527 1063.570, 820 1064.935 C 807.191 1067.613, 791.288 1084.461, 788.109 1098.719 C 787.523 1101.349, 786.346 1115.875, 785.493 1131 C 784.640 1146.125, 783.448 1163.675, 782.843 1170 C 782.239 1176.325, 781.537 1191.175, 781.283 1203 L 780.820 1224.500 783.554 1230 C 795.550 1254.132, 826.560 1259.490, 847.335 1241.020 C 855.365 1233.880, 858.426 1225.826, 864.063 1197 C 864.547 1194.525, 865.604 1190.250, 866.413 1187.500 C 868.148 1181.596, 870.736 1171.685, 872.549 1164 C 875.529 1151.366, 876.979 1147.617, 880.156 1144.339 C 884.386 1139.975, 891.183 1136.732, 905 1132.488 C 913.803 1129.784, 919.543 1127.833, 922.649 1126.490 C 924.381 1125.741, 927.531 1124.815, 929.649 1124.433 C 931.767 1124.050, 934.400 1123.265, 935.500 1122.688 C 936.600 1122.111, 939.750 1121.073, 942.500 1120.380 C 947.176 1119.202, 952.684 1117.432, 961 1114.433 C 966.892 1112.309, 974.183 1109.981, 981 1108.046 C 987.452 1106.215, 993.359 1104.423, 1002 1101.674 C 1007.269 1099.998, 1013.339 1098.359, 1021 1096.545 C 1024.025 1095.828, 1027.625 1094.774, 1029 1094.202 C 1030.375 1093.630, 1035.550 1091.974, 1040.500 1090.523 C 1045.450 1089.072, 1050.852 1087.296, 1052.504 1086.576 C 1054.156 1085.856, 1057.081 1084.958, 1059.004 1084.580 C 1060.927 1084.202, 1064.075 1083.288, 1066 1082.548 C 1067.925 1081.808, 1073.550 1079.985, 1078.500 1078.496 C 1083.450 1077.008, 1088.850 1075.246, 1090.500 1074.580 C 1092.150 1073.915, 1097.550 1072.106, 1102.500 1070.559 C 1107.450 1069.012, 1113.608 1066.904, 1116.185 1065.873 C 1118.762 1064.843, 1121.518 1064, 1122.308 1064 C 1124.881 1064, 1138.437 1057.788, 1147.292 1052.552 C 1160.893 1044.509, 1172.495 1025.802, 1176.165 1006 C 1177.808 997.129, 1176.566 980.511, 1173.773 974 C 1166.466 956.967, 1161.962 952.120, 1133.500 930.660 C 1131.300 929.001, 1128.825 927.037, 1128 926.294 C 1124.722 923.345, 1120.846 920.317, 1115.464 916.500 C 1112.362 914.300, 1105.476 909.125, 1100.162 905 C 1094.848 900.875, 1088.475 896.153, 1086 894.506 C 1083.525 892.859, 1077.225 888.370, 1072 884.530 C 1066.775 880.690, 1059.800 875.708, 1056.500 873.458 C 1053.200 871.208, 1048.475 867.928, 1046 866.170 C 1043.525 864.412, 1037.675 860.401, 1033 857.256 C 1028.325 854.112, 1024.050 851.188, 1023.500 850.759 C 1022.950 850.330, 1018.180 847.171, 1012.901 843.739 C 1007.621 840.308, 1002.611 837.050, 1001.767 836.500 C 996.090 832.800, 988.419 827.465, 988 826.924 C 987.725 826.569, 986.150 825.587, 984.500 824.740 C 979.495 822.173, 976.070 818.449, 976.655 816.210 C 976.944 815.107, 979.952 811.578, 983.340 808.368 C 986.728 805.159, 996.266 796, 1004.534 788.016 C 1012.803 780.032, 1025.575 767.875, 1032.915 761 C 1052.229 742.910, 1117.371 677.989, 1119.458 674.750 C 1121.540 671.519, 1126.135 670.993, 1128.193 673.750 C 1129.481 675.474, 1143.695 688.371, 1151.500 694.898 C 1153.700 696.737, 1157.750 700.346, 1160.500 702.918 C 1163.250 705.489, 1170.450 711.597, 1176.500 716.492 C 1182.550 721.386, 1188.226 726.090, 1189.114 726.945 C 1190.001 727.800, 1193.585 730.975, 1197.076 734 C 1202.952 739.090, 1208.203 743.707, 1218.565 752.895 C 1248.007 779.001, 1265.722 793.026, 1275.500 797.971 C 1280.060 800.277, 1281.608 800.500, 1293.085 800.500 C 1310.312 800.500, 1311.757 799.734, 1329.664 781.112 C 1337.274 773.199, 1356.041 754.096, 1371.369 738.661 C 1386.697 723.226, 1404.964 704.275, 1411.962 696.549 C 1424.652 682.539, 1452.727 653.919, 1465.020 642.460 C 1470.910 636.969, 1473.428 633.817, 1478.340 625.785 C 1479.253 624.292, 1480 622.485, 1480 621.770 C 1480 621.055, 1481 618.677, 1482.221 616.485 C 1484.227 612.888, 1484.446 611.089, 1484.471 598 C 1484.494 586.342, 1484.176 582.912, 1482.844 580.500 C 1481.934 578.850, 1479.943 574.902, 1478.419 571.727 C 1474.992 564.582, 1466.132 554.637, 1460.628 551.755 C 1448.199 545.247, 1446.194 544.737, 1433.191 544.769 C 1417.753 544.808, 1410.676 546.944, 1397.500 555.539 C 1389.507 560.753, 1384.176 567.754, 1377.348 582 C 1373.103 590.858, 1371 600.659, 1371 611.581 C 1371 615.085, 1370.295 618.426, 1369.058 620.790 C 1367.164 624.408, 1312.495 679.375, 1302.454 687.757 C 1299.679 690.073, 1295.997 692.251, 1294.271 692.596 C 1287.155 694.019, 1276.206 684.958, 1226.451 636.467 C 1203.328 613.932, 1195.124 606.103, 1182.205 594.245 C 1175.217 587.832, 1162.697 575.909, 1154.382 567.749 C 1124.877 538.794, 1123.901 537.913, 1107.317 525.266 C 1094.409 515.423, 1092.115 513.789, 1089.018 512.242 C 1087.633 511.549, 1084.700 509.884, 1082.500 508.540 C 1080.300 507.196, 1077.375 505.522, 1076 504.819 C 1074.625 504.116, 1073.266 503.223, 1072.981 502.835 C 1072.339 501.963, 1054.780 493.077, 1049.425 490.915 C 1033.676 484.557, 1025.579 482.020, 1016.138 480.487 C 1011.539 479.739, 1007.039 478.840, 1006.138 478.488 C 1005.237 478.136, 994.825 477.218, 983 476.447 C 971.175 475.677, 954.975 474.593, 947 474.038 C 933.173 473.076, 867.698 472.772, 863.500 473.650 M 727.500 877.253 C 708.800 896.089, 681.125 924.077, 666 939.448 C 650.875 954.819, 633.908 971.561, 628.296 976.652 C 622.683 981.743, 616.357 987.617, 614.238 989.704 C 590.780 1012.814, 558.924 1040.954, 556.153 1041.014 C 555.794 1041.022, 553.475 1042.875, 551 1045.133 C 548.525 1047.391, 540.875 1053.780, 534 1059.331 C 527.125 1064.883, 518.125 1072.315, 514 1075.847 C 509.875 1079.379, 504.238 1084.203, 501.473 1086.566 C 496.439 1090.870, 492.792 1093.736, 484.785 1099.681 C 482.428 1101.430, 478.925 1104.293, 477 1106.042 C 475.075 1107.791, 471.025 1111.046, 468 1113.276 C 464.975 1115.505, 458.900 1120.541, 454.500 1124.466 C 450.100 1128.391, 443.800 1133.721, 440.500 1136.309 C 437.200 1138.898, 433.838 1141.575, 433.030 1142.258 C 432.221 1142.941, 428.621 1145.606, 425.030 1148.180 C 421.438 1150.754, 417.600 1153.565, 416.500 1154.427 C 404.334 1163.953, 363.959 1194.663, 348.037 1206.500 C 343.598 1209.800, 338.672 1213.513, 337.089 1214.750 C 335.506 1215.987, 333.934 1217, 333.595 1217 C 333.257 1217, 330.710 1218.595, 327.935 1220.545 C 325.161 1222.495, 321.828 1224.495, 320.529 1224.989 C 317.400 1226.179, 308.901 1236.488, 305.542 1243.168 C 304.067 1246.101, 301.770 1250.441, 300.437 1252.812 C 299.104 1255.184, 296.832 1260.548, 295.388 1264.732 C 293.178 1271.135, 292.838 1273.538, 293.237 1279.919 C 294.063 1293.098, 297.208 1301.115, 305.897 1312.191 C 310.079 1317.522, 315.300 1324.472, 317.500 1327.637 C 323.416 1336.148, 344.825 1363.075, 348.200 1366.250 C 349.808 1367.763, 351.658 1369.015, 352.312 1369.034 C 352.965 1369.053, 355.300 1369.937, 357.500 1371 C 359.700 1372.063, 362.637 1372.947, 364.027 1372.966 C 365.418 1372.985, 367.668 1373.787, 369.027 1374.750 C 372.625 1377.296, 402.911 1377.913, 410.028 1375.586 C 412.694 1374.714, 415.466 1373.996, 416.188 1373.991 C 416.910 1373.986, 419.750 1372.875, 422.500 1371.522 C 425.432 1370.080, 429.306 1369.050, 431.867 1369.031 C 435.920 1369.002, 436.186 1368.838, 435.569 1366.750 C 435.203 1365.513, 434.517 1362.250, 434.043 1359.500 C 433.194 1354.578, 427.289 1339.294, 425.267 1336.785 C 423.208 1334.231, 413.089 1314.368, 411.034 1308.848 C 409.877 1305.740, 407.604 1301.240, 405.983 1298.848 C 404.362 1296.457, 403.028 1293.551, 403.018 1292.391 C 402.994 1289.637, 410.084 1281.622, 413.966 1280.014 C 415.635 1279.323, 417 1278.417, 417 1278 C 417 1277.583, 418.252 1276.724, 419.783 1276.090 C 422.190 1275.093, 426.598 1271.704, 432 1266.699 C 432.825 1265.934, 437.377 1262.163, 442.115 1258.319 C 446.854 1254.474, 451.804 1250.322, 453.115 1249.091 C 455.742 1246.626, 475.426 1231.433, 482.819 1226.165 C 485.394 1224.330, 489.075 1221.527, 491 1219.935 C 495.342 1216.346, 501.057 1211.981, 504.009 1210 C 505.239 1209.175, 506.928 1207.842, 507.763 1207.038 C 509.384 1205.477, 526.460 1191.949, 537.835 1183.213 C 541.621 1180.306, 546.470 1176.352, 548.609 1174.427 C 550.749 1172.502, 554.975 1169.031, 558 1166.713 C 561.025 1164.396, 564.134 1161.898, 564.909 1161.162 C 565.684 1160.426, 568.834 1157.952, 571.909 1155.663 C 574.984 1153.374, 588.750 1142.540, 602.500 1131.587 C 624.512 1114.053, 629.929 1109.542, 636.875 1102.960 C 637.769 1102.113, 641.425 1098.965, 645 1095.966 C 648.575 1092.967, 651.725 1090.275, 652 1089.984 C 652.275 1089.693, 655.190 1087.215, 658.479 1084.478 C 667.791 1076.724, 679.863 1066.062, 684.887 1061.151 C 686.759 1059.322, 696.766 1050.425, 710.491 1038.386 C 715.435 1034.049, 720.188 1029.825, 721.053 1029 C 723.647 1026.525, 740.776 1010.965, 752.204 1000.703 C 758.092 995.417, 763.751 990.283, 764.781 989.296 C 769.795 984.488, 798.650 957.144, 801.383 954.611 C 803.097 953.022, 810.125 946.272, 817 939.611 C 832.654 924.445, 841.998 916, 843.127 916 C 843.607 916, 844 914.718, 844 913.152 C 844 910.765, 843.362 910.053, 840.062 908.757 C 831.162 905.261, 804.633 885.697, 791 872.576 C 783.887 865.731, 772.963 853.710, 769.290 848.688 C 766.697 845.141, 764.161 842.999, 762.559 843.002 C 761.976 843.004, 746.200 858.416, 727.500 877.253"/>
  </g>
</svg>
